<svg width="53" height="53" viewBox="0 0 53 53" fill="none" xmlns="http://www.w3.org/2000/svg">
<rect width="53" height="53" rx="23" fill="#0B0B0B"/>
<path d="M15.4236 39.3944C14.4704 39.3944 13.6527 39.0616 12.9707 38.396C12.2968 37.7222 11.964 36.9045 11.9722 35.9431C11.964 35.0062 12.2968 34.205 12.9707 33.5394C13.6527 32.8738 14.4704 32.541 15.4236 32.541C16.3275 32.541 17.1247 32.8738 17.8149 33.5394C18.5134 34.205 18.8668 35.0062 18.875 35.9431C18.8668 36.584 18.6983 37.1675 18.3696 37.6934C18.0491 38.2111 17.63 38.6261 17.1123 38.9384C16.5946 39.2424 16.0317 39.3944 15.4236 39.3944ZM36.7194 39.3944C35.7662 39.3944 34.9485 39.0616 34.2665 38.396C33.5926 37.7222 33.2598 36.9045 33.268 35.9431C33.2598 35.0062 33.5926 34.205 34.2665 33.5394C34.9485 32.8738 35.7662 32.541 36.7194 32.541C37.6234 32.541 38.4205 32.8738 39.1107 33.5394C39.8092 34.205 40.1626 35.0062 40.1708 35.9431C40.1626 36.584 39.9941 37.1675 39.6654 37.6934C39.3449 38.2111 38.9258 38.6261 38.4081 38.9384C37.8904 39.2424 37.3275 39.3944 36.7194 39.3944Z" fill="#FEFEFE"/>
</svg>
